Coordinates
version=1
nRows=7
nColumns=46
inDegrees=yes

Units are S.I. units (second, meters, Newtons, ...)
Angles are in degrees.

endheader
time	pelvis_tilt	pelvis_list	pelvis_rotation	pelvis_tx	pelvis_ty	pelvis_tz	bb_angle	bb_tx	bb_ty	bb_tz	hip_flexion_r	hip_adduction_r	hip_rotation_r	knee_angle_r	knee_angle_r_beta	ankle_angle_r	subtalar_angle_r	mtp_angle_r	crank_angle_r	hip_flexion_l	hip_adduction_l	hip_rotation_l	knee_angle_l	knee_angle_l_beta	ankle_angle_l	subtalar_angle_l	mtp_angle_l	crank_angle_l	lumbar_extension	lumbar_bending	lumbar_rotation	arm_flex_r	arm_add_r	arm_rot_r	elbow_flex_r	pro_sup_r	wrist_flex_r	wrist_dev_r	arm_flex_l	arm_add_l	arm_rot_l	elbow_flex_l	pro_sup_l	wrist_flex_l	wrist_dev_l
      0.00000000	    -28.83805396	     -6.39381824	     -5.76128047	      0.11130006	      1.11011843	     -0.23151913	      0.00000000	      0.50000000	      0.00000000	      0.25000000	     91.19599871	      4.60687073	      0.25343141	     80.15284563	      1.39893106	     23.53008044	     -7.75786555	      0.00000000	      0.00000000	     37.73207615	    -11.75066734	      0.65676669	     20.72693313	      0.36175323	     23.55222676	      0.52875789	      0.00000000	      0.00000000	    -44.90547570	      3.04091047	      7.41423339	     89.75762601	     -3.39763405	     32.52514337	     38.28332011	     25.67804159	      0.00000000	      0.00000000	     89.77384357	     -7.19404860	     29.08002835	     36.91692837	     25.28468700	      0.00000000	      0.00000000
      0.00500000	    -28.93270053	     -6.46294908	     -5.80122282	      0.11118087	      1.11009619	     -0.23153790	      0.00000000	      0.50000000	      0.00000000	      0.25000000	     91.23690788	      4.65095736	      0.17413269	     80.04110731	      1.39698086	     23.46405109	     -7.91078637	      0.00000000	      0.00000000	     37.85980490	    -11.85009222	      0.59661844	     20.78152724	      0.36270607	     23.62350101	      0.71167754	      0.00000000	      0.00000000	    -44.85522372	      3.07532442	      7.43279631	     89.75959502	     -3.33941553	     31.98208095	     37.22897563	     31.56534544	      0.00000000	      0.00000000	     89.77385258	     -7.12730138	     28.75880207	     35.86029866	     30.97403759	      0.00000000	      0.00000000
      0.01000000	    -28.92245608	     -6.37997336	     -5.78475631	      0.11106061	      1.11012705	     -0.23165601	      0.00000000	      0.50000000	      0.00000000	      0.25000000	     91.21900788	      4.60122937	      0.24444384	     80.01361120	      1.39650096	     23.55227817	     -7.75819695	      0.00000000	      0.00000000	     37.81153588	    -11.73669308	      0.64221997	     20.70552362	      0.36137956	     23.53484338	      0.48810156	      0.00000000	      0.00000000	    -44.85287566	      3.03319151	      7.34730158	     89.75841099	     -3.40502337	     32.77785659	     38.74849501	     23.85053442	      0.00000000	      0.00000000	     89.77470861	     -7.37460516	     30.05802438	     37.63533483	     21.53266347	      0.00000000	      0.00000000
      0.01500000	    -28.38673032	     -6.06819856	     -5.45819004	      0.11182810	      1.11121215	     -0.23343760	      0.00000000	      0.50000000	      0.00000000	      0.25000000	     90.46865501	      4.34368507	      0.61898950	     79.87023105	      1.39399851	     23.80946521	     -8.41516409	      0.00000000	      0.00000000	     37.53320033	    -11.33463247	      0.08705753	     21.33091830	      0.37229476	     23.77204482	      0.70407749	      0.00000000	      0.00000000	    -45.34629180	      2.81273410	      6.96919094	     89.75834019	     -3.73838260	     32.73590681	     38.71194957	     23.82411938	      0.00000000	      0.00000000	     89.77765259	     -7.24546295	     30.21992185	     37.78748396	     21.57761310	      0.00000000	      0.00000000
      0.02000000	    -28.02244562	     -5.35656724	     -5.32037528	      0.11229771	      1.11210818	     -0.23513484	      0.00000000	      0.50000000	      0.00000000	      0.25000000	     90.15051568	      3.97046321	      1.31911731	     79.95129857	      1.39541340	     23.72498931	     -8.46310749	      0.00000000	      0.00000000	     37.13250720	    -10.69515359	     -0.77335819	     21.59150157	      0.37684279	     24.37405117	      1.08930091	      0.00000000	      0.00000000	    -45.68982323	      2.21008407	      6.53183863	     89.75715440	     -3.92897247	     32.50676571	     38.72488418	     23.79640232	      0.00000000	      0.00000000	     89.77812806	     -7.05263813	     30.38593820	     38.00337674	     21.63216376	      0.00000000	      0.00000000
      0.02500000	    -27.93893073	     -5.42926640	     -5.46312931	      0.11265771	      1.11217452	     -0.23486799	      0.00000000	      0.50000000	      0.00000000	      0.25000000	     90.02844774	      4.06301999	      1.20174768	     79.88714792	      1.39429376	     23.79401202	     -8.25655302	      0.00000000	      0.00000000	     36.73226708	    -10.57679494	     -0.46858949	     20.89046388	      0.36460738	     23.75151120	      1.08941647	      0.00000000	      0.00000000	    -45.79875823	      2.21582914	      6.65953582	     89.75930005	     -3.73825224	     32.44931402	     38.74368096	     23.78330145	      0.00000000	      0.00000000	     89.78210893	     -6.86244391	     30.28514021	     37.90831697	     21.61373614	      0.00000000	      0.00000000
      0.03000000	    -27.75502323	     -5.27122814	     -5.43136132	      0.11274754	      1.11233489	     -0.23500241	      0.00000000	      0.50000000	      0.00000000	      0.25000000	     89.87120149	      3.91121076	      1.30144941	     79.95833379	      1.39553619	     24.02731937	     -7.75763431	      0.00000000	      0.00000000	     36.45538908	    -10.29674963	     -0.30880403	     20.74445835	      0.36205910	     23.54500863	      0.21580735	      0.00000000	      0.00000000	    -45.95422480	      2.06020235	      6.57091267	     89.75701727	     -3.63179020	     31.79072546	     38.52069614	     24.59620479	      0.00000000	      0.00000000	     89.78401630	     -6.48903070	     29.44064302	     37.53586865	     22.56997203	      0.00000000	      0.00000000
